<svg width="64" height="64" viewBox="0 0 64 64" fill="none" xmlns="http://www.w3.org/2000/svg">
  <defs>
    <linearGradient id="gradient1" x1="0%" y1="0%" x2="100%" y2="100%">
      <stop offset="0%" style="stop-color:#6366F1;stop-opacity:1" />
      <stop offset="100%" style="stop-color:#8B5CF6;stop-opacity:1" />
    </linearGradient>
    <linearGradient id="gradient2" x1="0%" y1="0%" x2="100%" y2="100%">
      <stop offset="0%" style="stop-color:#8B5CF6;stop-opacity:1" />
      <stop offset="100%" style="stop-color:#06B6D4;stop-opacity:1" />
    </linearGradient>
  </defs>

  <!-- Background circle -->
  <circle cx="32" cy="32" r="30" fill="url(#gradient1)" stroke="white" stroke-width="2"/>

  <!-- Inner design elements -->
  <circle cx="32" cy="32" r="24" fill="none" stroke="white" stroke-width="2" opacity="0.3"/>

  <!-- Central hub design -->
  <circle cx="32" cy="32" r="12" fill="url(#gradient2)"/>

  <!-- Workflow connection lines -->
  <path d="M20 32 L44 32 M32 20 L32 44 M23 23 L41 41 M41 23 L23 41"
        stroke="white" stroke-width="2" stroke-linecap="round" opacity="0.8"/>

  <!-- AI brain symbol -->
  <path d="M26 28 Q32 24 38 28 Q38 32 32 36 Q26 32 26 28 Z"
        fill="white" opacity="0.9"/>

  <!-- Sparkle effects -->
  <circle cx="18" cy="18" r="2" fill="white" opacity="0.6"/>
  <circle cx="46" cy="16" r="1.5" fill="white" opacity="0.5"/>
  <circle cx="48" cy="48" r="2" fill="white" opacity="0.4"/>
  <circle cx="16" cy="46" r="1" fill="white" opacity="0.7"/>
</svg>
